<svg width="85" height="44" viewBox="0 0 85 44" fill="none" xmlns="http://www.w3.org/2000/svg">
<path d="M53.5 20.5627C53.4912 20.1692 53.3322 19.7919 53.0517 19.5137C52.7712 19.2355 52.3933 19.0792 52 19.0792C51.6066 19.0792 51.2287 19.2355 50.9482 19.5137C50.6677 19.7919 50.5087 20.1692 50.5 20.5627C50.4138 24.4638 50.3388 28.3649 50.2749 32.266C50.237 34.5788 50.2031 36.8916 50.173 39.2043C50.1037 41.4345 52.1018 43.472 54.3583 43.4344C56.6126 43.5019 58.6669 41.481 58.6265 39.2043C58.6582 35.8238 58.6815 32.4432 58.6965 29.0627C58.6865 26.7247 60.0435 24.4694 62.0906 23.3619C63.0433 22.8371 64.1214 22.5612 65.2166 22.5617C70.2277 22.5593 75.2388 22.5526 80.25 22.5418C82.7714 22.5972 85.0314 20.328 84.9687 17.8127C85.0232 15.2967 82.7585 13.0431 80.25 13.1065C73.6555 13.1272 67.0611 13.1552 60.4666 13.1905C59.4694 13.2285 58.5411 12.3296 58.5553 11.3127C58.5155 10.2976 59.4296 9.35069 60.4666 9.36399C66.9777 9.32051 73.4889 9.26989 80 9.21213C82.4795 9.25521 84.68 7.01692 84.6064 4.56268C84.648 2.10604 82.4298 -0.072157 80 0.00181806C70.6666 0.0944809 61.3333 0.201809 52 0.323801C46.5569 0.29116 40.3361 1.91718 36.7031 6.48478C33.067 10.891 31.388 16.2013 29.777 21.3303C27.4969 30.3539 21.2455 38.7828 11.5987 40.3259C7.81101 41.1805 3.91495 41.4745 2.28882e-05 41.5627C3.91587 41.6391 7.82765 41.5086 11.696 40.7965C21.5081 39.7187 28.6755 30.8929 31.2231 21.7951C32.9668 16.7833 34.8502 11.6429 38.2301 7.81856C41.5738 3.90887 46.8189 2.67168 52 2.80157C61.3333 2.92356 70.6666 3.03089 80 3.12355C80.7661 3.11981 81.4296 3.82335 81.3936 4.56268C81.3977 5.30441 80.7164 5.94786 80 5.91323C73.4889 5.85547 66.9777 5.80485 60.4666 5.76137C57.5087 5.67753 54.8206 8.33276 54.8779 11.3127C54.7951 14.2907 57.4689 16.994 60.4666 16.9349C67.0611 16.9702 73.6555 16.9982 80.25 17.0189C80.671 17.011 81.048 17.399 81.0313 17.8127C81.0397 18.227 80.6582 18.5994 80.25 18.5836C75.2388 18.5727 70.2277 18.5661 65.2166 18.5637C63.465 18.5598 61.7017 19.0076 60.1633 19.8569C56.8609 21.6368 54.684 25.3142 54.7368 29.0627C54.7517 32.4432 54.7751 35.8238 54.8068 39.2043C54.8275 39.4401 54.6164 39.6846 54.3583 39.6909C54.1024 39.7145 53.8352 39.4865 53.8269 39.2043C53.7969 36.8916 53.7629 34.5788 53.725 32.266C53.6611 28.3649 53.5861 24.4638 53.5 20.5627Z" fill="url(#paint0_linear_624_19)"/>
<defs>
<linearGradient id="paint0_linear_624_19" x1="106" y1="45.5627" x2="37" y2="-1.43732" gradientUnits="userSpaceOnUse">
<stop offset="0.235577" stop-color="#FFE62C"/>
<stop offset="1" stop-color="#FF0095"/>
</linearGradient>
</defs>
</svg>
